name C:\Users\Nicos\Documents\OpenSimProjects\Pred_Sim_Sprinting\Pred_Sim_Sprinting\MainFunctions\ExperimentalData\IK_Splined\Splined_50_meshInts_p02_maxVel_01.mot
datacolumns 38
datarows 5
range 0.17028571 0.17485714
endheader
                time	/jointset/ground_pelvis/pelvis_tilt/value	/jointset/ground_pelvis/pelvis_list/value	/jointset/ground_pelvis/pelvis_rotation/value	/jointset/ground_pelvis/pelvis_tx/value	/jointset/ground_pelvis/pelvis_ty/value	/jointset/ground_pelvis/pelvis_tz/value	/jointset/hip_r/hip_flexion_r/value	/jointset/hip_r/hip_adduction_r/value	/jointset/hip_r/hip_rotation_r/value	/jointset/knee_r/knee_angle_r/value	/jointset/ankle_r/ankle_angle_r/value	/jointset/subtalar_r/subtalar_angle_r/value	/jointset/mtp_r/mtp_angle_r/value	/jointset/hip_l/hip_flexion_l/value	/jointset/hip_l/hip_adduction_l/value	/jointset/hip_l/hip_rotation_l/value	/jointset/knee_l/knee_angle_l/value	/jointset/ankle_l/ankle_angle_l/value	/jointset/subtalar_l/subtalar_angle_l/value	/jointset/mtp_l/mtp_angle_l/value	/jointset/back/lumbar_extension/value	/jointset/back/lumbar_bending/value	/jointset/back/lumbar_rotation/value	/jointset/acromial_r/arm_flex_r/value	/jointset/acromial_r/arm_add_r/value	/jointset/acromial_r/arm_rot_r/value	/jointset/elbow_r/elbow_flex_r/value	/jointset/radioulnar_r/pro_sup_r/value	/jointset/radius_hand_r/wrist_flex_r/value	/jointset/radius_hand_r/wrist_dev_r/value	/jointset/acromial_l/arm_flex_l/value	/jointset/acromial_l/arm_add_l/value	/jointset/acromial_l/arm_rot_l/value	/jointset/elbow_l/elbow_flex_l/value	/jointset/radioulnar_l/pro_sup_l/value	/jointset/radius_hand_l/wrist_flex_l/value	/jointset/radius_hand_l/wrist_dev_l/value	
          0.17028571	         -6.25968501	          8.43015973	          0.78253266	         -0.71653508	          0.97049856	          0.30622296	        -21.97962882	         -7.83753817	         -4.34657230	        -29.14979364	        -39.10917833	        -10.18408978	         -0.76912236	         85.26457406	          9.02849322	         -4.55734005	        -85.08074058	         -4.20868990	        -11.09913827	          6.22145771	          1.22632184	        -15.29771677	         -1.73907787	         48.42945769	         -8.76911801	         34.43689082	        139.70312172	         61.38653897	        -18.00669344	         14.97385163	        -82.60638625	          0.17518651	        -50.42196180	         63.38065414	         65.63431851	          7.05879270	         23.49994175	
          0.17098034	         -6.31452286	          8.37713303	          0.92690770	         -0.70978204	          0.97086381	          0.30619524	        -21.93855342	         -7.69627501	         -4.33296224	        -29.55360669	        -39.06299170	         -9.71706197	         -0.71727487	         85.09755041	          9.14175190	         -4.35950418	        -84.20871745	         -4.27303256	        -11.08113053	          6.14049738	          1.24546644	        -15.29723413	         -1.82261551	         48.41588968	         -8.84289857	         34.37850413	        140.04373362	         61.35878836	        -18.03715939	         14.97970864	        -82.52006464	          0.24204831	        -50.59879189	         63.45105788	         65.45783666	          7.08306134	         23.50440578	
          0.17317509	         -6.45557765	          8.20959005	          1.34298617	         -0.68851998	          0.97207726	          0.30615719	        -21.77383868	         -7.27110461	         -4.30142709	        -30.93342566	        -38.80005418	         -8.31676686	         -0.48499772	         84.47904779	          9.45729015	         -3.72788553	        -81.41792403	         -4.48275688	        -10.97047492	          5.90547823	          1.25587293	        -15.30013036	         -2.05156513	         48.30186543	         -9.09229093	         34.17074064	        141.10391491	         61.25066090	        -18.12266819	         14.99851337	        -82.18097860	          0.42788024	        -51.13482548	         63.66366589	         64.91671122	          7.15666150	         23.51558943	
          0.17476571	         -6.52749515	          8.09006265	          1.60950045	         -0.67317206	          0.97300761	          0.30617025	        -21.62447521	         -6.98626535	         -4.29919018	        -32.02747676	        -38.52617478	         -7.40062701	         -0.27229588	         83.94706792	          9.64937511	         -3.26468043	        -79.36397542	         -4.64035354	        -10.84218995	          5.75584843	          1.21688619	        -15.30807159	         -2.18566229	         48.15166813	         -9.29198747	         34.00537061	        141.85630489	         61.14865314	        -18.17552294	         15.01219239	        -81.87569198	          0.53766548	        -51.50131131	         63.81244104	         64.53969835	          7.20796928	         23.52135193	
          0.17485714	         -6.53086163	          8.08327128	          1.62399139	         -0.67229124	          0.97306225	          0.30617190	        -21.61519611	         -6.97054233	         -4.29977538	        -32.09265335	        -38.50893562	         -7.35108545	         -0.25939077	         83.91441162	          9.65955536	         -3.23792659	        -79.24517864	         -4.64954016	        -10.83366761	          5.74779422	          1.21348144	        -15.30870221	         -2.19259012	         48.14131790	         -9.30402330	         33.99564904	        141.89911795	         61.14210433	        -18.17835460	         15.01297367	        -81.85670569	          0.54333104	        -51.52180343	         63.82095384	         64.51840227	          7.21088557	         23.52163303	
